<?xml version="1.0" encoding="UTF-8" standalone="no"?><svg xmlns="http://www.w3.org/2000/svg" xmlns:xlink="http://www.w3.org/1999/xlink" contentScriptType="application/ecmascript" contentStyleType="text/css" height="305px" preserveAspectRatio="none" style="width:1325px;height:305px;background:#FFFFFF;" version="1.1" viewBox="0 0 1325 305" width="1325px" zoomAndPan="magnify"><defs><filter height="300%" id="f1f0azh44o4w0m" width="300%" x="-1" y="-1"><feGaussianBlur result="blurOut" stdDeviation="2.0"/><feColorMatrix in="blurOut" result="blurOut2" type="matrix" values="0 0 0 0 0 0 0 0 0 0 0 0 0 0 0 0 0 0 .4 0"/><feOffset dx="4.0" dy="4.0" in="blurOut2" result="blurOut3"/><feBlend in="SourceGraphic" in2="blurOut3" mode="normal"/></filter></defs><g><!--MD5=[1ddc4b0eff0cb44bb1b0ed2e17f68b41]
cluster containers--><polygon fill="#FFFFFF" filter="url(#f1f0azh44o4w0m)" points="16,6,97,6,104,29.6094,566,29.6094,566,298,16,298,16,6" style="stroke:#000000;stroke-width:1.5;"/><line style="stroke:#000000;stroke-width:1.5;" x1="16" x2="104" y1="29.6094" y2="29.6094"/><text fill="#000000" font-family="sans-serif" font-size="14" font-weight="bold" lengthAdjust="spacing" textLength="75" x="20" y="22.5332">containers</text><!--MD5=[63c4650f895c02f012fb57dede53fb60]
cluster exceptions--><polygon fill="#FFFFFF" filter="url(#f1f0azh44o4w0m)" points="590,27,674,27,681,50.6094,1308,50.6094,1308,277,590,277,590,27" style="stroke:#000000;stroke-width:1.5;"/><line style="stroke:#000000;stroke-width:1.5;" x1="590" x2="681" y1="50.6094" y2="50.6094"/><text fill="#000000" font-family="sans-serif" font-size="14" font-weight="bold" lengthAdjust="spacing" textLength="78" x="594" y="43.5332">exceptions</text><!--MD5=[bea5b0d46523efab5ea1c1d339f396f0]
class Message--><rect codeLine="4" fill="#FEFECE" filter="url(#f1f0azh44o4w0m)" height="75.6719" id="Message" style="stroke:#A80036;stroke-width:1.5;" width="116" x="32" y="49"/><ellipse cx="62.75" cy="65" fill="#A9DCDF" rx="11" ry="11" style="stroke:#A80036;stroke-width:1.0;"/><path d="M64.5,66.5 L61.2031,66.5 L60.7656,67.5 L60.7656,67.5 L61.2344,67.5 L61.75,68.125 L61.75,68.5 L61.75,68.875 L61.2344,69.5 L60.7656,69.5 L58.875,69.5 L58.2656,69.5 L57.75,68.875 L57.75,68.5 L57.75,68.125 L58.2656,67.5 L58.875,67.5 L61.1875,61.5 L60.3125,61.5 L59.2656,61.5 L58.75,60.875 L58.75,60.5 L58.75,60.125 L59.2656,59.5 L60.3125,59.5 L63.9844,59.5 L66.6719,67.5 L67.2344,67.5 L67.2344,67.5 L67.75,68.125 L67.75,68.5 L67.75,68.875 L67.2344,69.5 L66.6719,69.5 L64.7813,69.5 L64.2656,69.5 L63.75,68.875 L63.75,68.5 L63.75,68.125 L64.2656,67.5 L64.7813,67.5 L64.7813,67.5 L64.5,66.5 Z M63.9531,64.5 L62.75,60.9219 L61.7188,64.5 L63.9531,64.5 Z " fill="#000000"/><text fill="#000000" font-family="sans-serif" font-size="12" font-style="italic" lengthAdjust="spacing" textLength="49" x="80.25" y="69.9102">Message</text><line style="stroke:#A80036;stroke-width:1.5;" x1="33" x2="147" y1="81" y2="81"/><ellipse cx="43" cy="92" fill="none" rx="3" ry="3" style="stroke:#038048;stroke-width:1.0;"/><text fill="#000000" font-family="sans-serif" font-size="11" lengthAdjust="spacing" textLength="88" x="52" y="96.4189">final String sender</text><ellipse cx="43" cy="105.8359" fill="none" rx="3" ry="3" style="stroke:#038048;stroke-width:1.0;"/><text fill="#000000" font-family="sans-serif" font-size="11" lengthAdjust="spacing" textLength="90" x="52" y="110.2549">final String content</text><line style="stroke:#A80036;stroke-width:1.5;" x1="33" x2="147" y1="116.6719" y2="116.6719"/><!--MD5=[055fb934591a099af6363f512f688300]
class ResponseType--><rect codeLine="8" fill="#FEFECE" filter="url(#f1f0azh44o4w0m)" height="89.5078" id="ResponseType" style="stroke:#A80036;stroke-width:1.5;" width="120" x="213" y="192"/><ellipse cx="229.8" cy="208" fill="#EB937F" rx="11" ry="11" style="stroke:#A80036;stroke-width:1.0;"/><path d="M228.3,209 L228.3,211 L232.3,211 L232.3,210 L232.3,209.5156 L232.925,209 L233.3,209 L233.675,209 L234.3,209.5156 L234.3,210 L234.3,213 L226.3,213 L225.8156,213 L225.3,212.375 L225.3,212 L225.3,211.625 L225.8156,211 L226.3,211 L226.3,211 L226.3,205 L226.3,205 L225.8156,205 L225.3,204.375 L225.3,204 L225.3,203.625 L225.8156,203 L226.3,203 L234.3,203 L234.3,206 L234.3,206.4844 L233.675,207 L233.3,207 L232.925,207 L232.3,206.4844 L232.3,206 L232.3,205 L228.3,205 L228.3,207 L229.3,207 L229.3,206.5156 L229.3,206.5156 L229.925,206 L230.3,206 L230.675,206 L231.3,206.5156 L231.3,207 L231.3,209 L231.3,209.4844 L230.675,210 L230.675,210 L230.3,210 L229.925,210 L229.3,209.4844 L229.3,209.4844 L229.3,209 L228.3,209 Z " fill="#000000"/><text fill="#000000" font-family="sans-serif" font-size="12" lengthAdjust="spacing" textLength="84" x="244.2" y="212.9102">ResponseType</text><line style="stroke:#A80036;stroke-width:1.5;" x1="214" x2="332" y1="224" y2="224"/><ellipse cx="224" cy="235" fill="none" rx="3" ry="3" style="stroke:#038048;stroke-width:1.0;"/><text fill="#000000" font-family="sans-serif" font-size="11" lengthAdjust="spacing" textLength="28" x="233" y="239.4189">NONE</text><ellipse cx="224" cy="248.8359" fill="none" rx="3" ry="3" style="stroke:#038048;stroke-width:1.0;"/><text fill="#000000" font-family="sans-serif" font-size="11" lengthAdjust="spacing" textLength="94" x="233" y="253.2549">TASK_COMPLETED</text><ellipse cx="224" cy="262.6719" fill="none" rx="3" ry="3" style="stroke:#038048;stroke-width:1.0;"/><text fill="#000000" font-family="sans-serif" font-size="11" lengthAdjust="spacing" textLength="69" x="233" y="267.0908">TASK_FAILED</text><line style="stroke:#A80036;stroke-width:1.5;" x1="214" x2="332" y1="273.5078" y2="273.5078"/><!--MD5=[62ba8ad8b61caf20139235a169a8c31d]
class Response--><rect codeLine="13" fill="#FEFECE" filter="url(#f1f0azh44o4w0m)" height="75.6719" id="Response" style="stroke:#A80036;stroke-width:1.5;" width="146" x="32" y="199"/><ellipse cx="72.2" cy="215" fill="#ADD1B2" rx="11" ry="11" style="stroke:#A80036;stroke-width:1.0;"/><path d="M74.2,211.5 Q74.4031,211 74.6375,210.75 Q74.8719,210.5 75.1375,210.5 Q75.6063,210.5 75.9031,210.7813 Q76.2,211.0625 76.2,211.7188 L76.2,213.2813 Q76.2,213.9375 75.9188,214.2188 Q75.6375,214.5 75.2,214.5 Q74.8094,214.5 74.5594,214.3281 Q74.3094,214.1563 74.2,213.7031 Q74.1531,213.3906 73.9813,213.2188 Q73.6688,212.8906 73.1063,212.7031 Q72.5438,212.5 71.9813,212.5 Q71.2781,212.5 70.6844,212.7813 Q70.1063,213.0625 69.6531,213.6875 Q69.2,214.3125 69.2,215.1719 L69.2,216.0938 Q69.2,217.125 70.0438,217.8125 Q70.8875,218.5 72.3875,218.5 Q73.2781,218.5 73.9031,218.2969 Q74.2625,218.1875 74.6688,217.8281 Q74.9344,217.625 75.075,217.5625 Q75.2156,217.5 75.3875,217.5 Q75.7156,217.5 75.95,217.7656 Q76.2,218.0156 76.2,218.375 Q76.2,218.7188 75.8563,219.125 Q75.3563,219.7188 74.5594,220.0469 Q73.5125,220.5 72.2313,220.5 Q70.7313,220.5 69.5281,219.9063 Q68.5594,219.4375 67.8719,218.4219 Q67.2,217.4063 67.2,216.2031 L67.2,215.1094 Q67.2,213.8594 67.7938,212.7656 Q68.4031,211.6719 69.45,211.0938 Q70.5125,210.5 71.7,210.5 Q72.4188,210.5 73.0438,210.75 Q73.6688,211 74.2,211.5 Z " fill="#000000"/><text fill="#000000" font-family="sans-serif" font-size="12" lengthAdjust="spacing" textLength="58" x="91.8" y="219.9102">Response</text><line style="stroke:#A80036;stroke-width:1.5;" x1="33" x2="177" y1="231" y2="231"/><ellipse cx="43" cy="242" fill="none" rx="3" ry="3" style="stroke:#038048;stroke-width:1.0;"/><text fill="#000000" font-family="sans-serif" font-size="11" lengthAdjust="spacing" textLength="120" x="52" y="246.4189">final ResponseType type</text><ellipse cx="43" cy="255.8359" fill="none" rx="3" ry="3" style="stroke:#038048;stroke-width:1.0;"/><text fill="#000000" font-family="sans-serif" font-size="11" lengthAdjust="spacing" textLength="50" x="52" y="260.2549">Object arg</text><line style="stroke:#A80036;stroke-width:1.5;" x1="33" x2="177" y1="266.6719" y2="266.6719"/><!--MD5=[e2d8700bfe79070c43730c7948d6f236]
class RequestType--><rect codeLine="19" fill="#FEFECE" filter="url(#f1f0azh44o4w0m)" height="61.8359" id="RequestType" style="stroke:#A80036;stroke-width:1.5;" width="105" x="444.5" y="56"/><ellipse cx="459.5" cy="72" fill="#EB937F" rx="11" ry="11" style="stroke:#A80036;stroke-width:1.0;"/><path d="M458,73 L458,75 L462,75 L462,74 L462,73.5156 L462.625,73 L463,73 L463.375,73 L464,73.5156 L464,74 L464,77 L456,77 L455.5156,77 L455,76.375 L455,76 L455,75.625 L455.5156,75 L456,75 L456,75 L456,69 L456,69 L455.5156,69 L455,68.375 L455,68 L455,67.625 L455.5156,67 L456,67 L464,67 L464,70 L464,70.4844 L463.375,71 L463,71 L462.625,71 L462,70.4844 L462,70 L462,69 L458,69 L458,71 L459,71 L459,70.5156 L459,70.5156 L459.625,70 L460,70 L460.375,70 L461,70.5156 L461,71 L461,73 L461,73.4844 L460.375,74 L460.375,74 L460,74 L459.625,74 L459,73.4844 L459,73.4844 L459,73 L458,73 Z " fill="#000000"/><text fill="#000000" font-family="sans-serif" font-size="12" lengthAdjust="spacing" textLength="73" x="473.5" y="76.9102">RequestType</text><line style="stroke:#A80036;stroke-width:1.5;" x1="445.5" x2="548.5" y1="88" y2="88"/><ellipse cx="455.5" cy="99" fill="none" rx="3" ry="3" style="stroke:#038048;stroke-width:1.0;"/><text fill="#000000" font-family="sans-serif" font-size="11" lengthAdjust="spacing" textLength="49" x="464.5" y="103.4189">DO_TASK</text><line style="stroke:#A80036;stroke-width:1.5;" x1="445.5" x2="548.5" y1="109.8359" y2="109.8359"/><!--MD5=[0851f84a889f989e7bb0bebc385d0f09]
class Request--><rect codeLine="22" fill="#FEFECE" filter="url(#f1f0azh44o4w0m)" height="89.5078" id="Request" style="stroke:#A80036;stroke-width:1.5;" width="226" x="183" y="42"/><ellipse cx="268.25" cy="58" fill="#ADD1B2" rx="11" ry="11" style="stroke:#A80036;stroke-width:1.0;"/><path d="M270.25,54.5 Q270.4531,54 270.6875,53.75 Q270.9219,53.5 271.1875,53.5 Q271.6563,53.5 271.9531,53.7813 Q272.25,54.0625 272.25,54.7188 L272.25,56.2813 Q272.25,56.9375 271.9688,57.2188 Q271.6875,57.5 271.25,57.5 Q270.8594,57.5 270.6094,57.3281 Q270.3594,57.1563 270.25,56.7031 Q270.2031,56.3906 270.0313,56.2188 Q269.7188,55.8906 269.1563,55.7031 Q268.5938,55.5 268.0313,55.5 Q267.3281,55.5 266.7344,55.7813 Q266.1563,56.0625 265.7031,56.6875 Q265.25,57.3125 265.25,58.1719 L265.25,59.0938 Q265.25,60.125 266.0938,60.8125 Q266.9375,61.5 268.4375,61.5 Q269.3281,61.5 269.9531,61.2969 Q270.3125,61.1875 270.7188,60.8281 Q270.9844,60.625 271.125,60.5625 Q271.2656,60.5 271.4375,60.5 Q271.7656,60.5 272,60.7656 Q272.25,61.0156 272.25,61.375 Q272.25,61.7188 271.9063,62.125 Q271.4063,62.7188 270.6094,63.0469 Q269.5625,63.5 268.2813,63.5 Q266.7813,63.5 265.5781,62.9063 Q264.6094,62.4375 263.9219,61.4219 Q263.25,60.4063 263.25,59.2031 L263.25,58.1094 Q263.25,56.8594 263.8438,55.7656 Q264.4531,54.6719 265.5,54.0938 Q266.5625,53.5 267.75,53.5 Q268.4688,53.5 269.0938,53.75 Q269.7188,54 270.25,54.5 Z " fill="#000000"/><text fill="#000000" font-family="sans-serif" font-size="12" lengthAdjust="spacing" textLength="47" x="288.75" y="62.9102">Request</text><line style="stroke:#A80036;stroke-width:1.5;" x1="184" x2="408" y1="74" y2="74"/><ellipse cx="194" cy="85" fill="none" rx="3" ry="3" style="stroke:#038048;stroke-width:1.0;"/><text fill="#000000" font-family="sans-serif" font-size="11" lengthAdjust="spacing" textLength="111" x="203" y="89.4189">final RequestType type</text><ellipse cx="194" cy="98.8359" fill="none" rx="3" ry="3" style="stroke:#038048;stroke-width:1.0;"/><text fill="#000000" font-family="sans-serif" font-size="11" lengthAdjust="spacing" textLength="200" x="203" y="103.2549">final StorageManager.TaskType taskType</text><ellipse cx="194" cy="112.6719" fill="none" rx="3" ry="3" style="stroke:#038048;stroke-width:1.0;"/><text fill="#000000" font-family="sans-serif" font-size="11" lengthAdjust="spacing" textLength="73" x="203" y="117.0908">final Object arg</text><line style="stroke:#A80036;stroke-width:1.5;" x1="184" x2="408" y1="123.5078" y2="123.5078"/><!--MD5=[96dc176a570159dd60e6cf1ff94f2af7]
class CallstackOverflowException--><rect codeLine="32" fill="#FFCC99" filter="url(#f1f0azh44o4w0m)" height="48" id="CallstackOverflowException" style="stroke:#A80036;stroke-width:1.5;" width="183" x="619.5" y="63"/><ellipse cx="634.5" cy="79" fill="#FF9999" rx="11" ry="11" style="stroke:#A80036;stroke-width:1.0;"/><path d="M635.5313,79 L638,82 L638.4844,82 L639,82.625 L639,83 L639,83.375 L638.4844,84 L638,84 L635.9531,84 L635.5156,84 L635,83.375 L635,83 L635,82.625 L635.5156,82 L636.0156,82 L634.5,80.2969 L632.9844,82 L633.4844,82 L634,82.625 L634,83 L634,83.375 L633.4844,84 L633.0469,84 L631,84 L630.5156,84 L630,83.375 L630,83 L630,82.625 L630.5156,82 L631,82 L633.4844,79 L631,76 L630.5156,76 L630,75.375 L630,75 L630,74.625 L630.5156,74 L631,74 L633.0469,74 L633.4844,74 L634,74.625 L634,75 L634,75.375 L633.4844,76 L633.4844,76 L632.9844,76 L634.5,77.5781 L636.1406,76 L635.5156,76 L635.5156,76 L635,75.375 L635,75 L635,74.625 L635.5156,74 L635.9531,74 L638,74 L638.4844,74 L639,74.625 L639,75 L639,75.375 L638.4844,76 L638,76 L635.5313,79 Z " fill="#000000"/><text fill="#000000" font-family="sans-serif" font-size="12" lengthAdjust="spacing" textLength="151" x="648.5" y="83.9102">CallstackOverflowException</text><line style="stroke:#A80036;stroke-width:1.5;" x1="620.5" x2="801.5" y1="95" y2="95"/><line style="stroke:#A80036;stroke-width:1.5;" x1="620.5" x2="801.5" y1="103" y2="103"/><!--MD5=[78e462372ff9f0d131504c3997b39f27]
class ExitScriptException--><rect codeLine="33" fill="#FFCC99" filter="url(#f1f0azh44o4w0m)" height="48" id="ExitScriptException" style="stroke:#A80036;stroke-width:1.5;" width="135" x="837.5" y="63"/><ellipse cx="852.5" cy="79" fill="#FF9999" rx="11" ry="11" style="stroke:#A80036;stroke-width:1.0;"/><path d="M853.5313,79 L856,82 L856.4844,82 L857,82.625 L857,83 L857,83.375 L856.4844,84 L856,84 L853.9531,84 L853.5156,84 L853,83.375 L853,83 L853,82.625 L853.5156,82 L854.0156,82 L852.5,80.2969 L850.9844,82 L851.4844,82 L852,82.625 L852,83 L852,83.375 L851.4844,84 L851.0469,84 L849,84 L848.5156,84 L848,83.375 L848,83 L848,82.625 L848.5156,82 L849,82 L851.4844,79 L849,76 L848.5156,76 L848,75.375 L848,75 L848,74.625 L848.5156,74 L849,74 L851.0469,74 L851.4844,74 L852,74.625 L852,75 L852,75.375 L851.4844,76 L851.4844,76 L850.9844,76 L852.5,77.5781 L854.1406,76 L853.5156,76 L853.5156,76 L853,75.375 L853,75 L853,74.625 L853.5156,74 L853.9531,74 L856,74 L856.4844,74 L857,74.625 L857,75 L857,75.375 L856.4844,76 L856,76 L853.5313,79 Z " fill="#000000"/><text fill="#000000" font-family="sans-serif" font-size="12" lengthAdjust="spacing" textLength="103" x="866.5" y="83.9102">ExitScriptException</text><line style="stroke:#A80036;stroke-width:1.5;" x1="838.5" x2="971.5" y1="95" y2="95"/><line style="stroke:#A80036;stroke-width:1.5;" x1="838.5" x2="971.5" y1="103" y2="103"/><!--MD5=[760261d8f40f77688f1cbd5146d9b76f]
class InvalidCmdArgumentException--><rect codeLine="34" fill="#FFCC99" filter="url(#f1f0azh44o4w0m)" height="48" id="InvalidCmdArgumentException" style="stroke:#A80036;stroke-width:1.5;" width="200" x="1008" y="63"/><ellipse cx="1023" cy="79" fill="#FF9999" rx="11" ry="11" style="stroke:#A80036;stroke-width:1.0;"/><path d="M1024.0313,79 L1026.5,82 L1026.9844,82 L1027.5,82.625 L1027.5,83 L1027.5,83.375 L1026.9844,84 L1026.5,84 L1024.4531,84 L1024.0156,84 L1023.5,83.375 L1023.5,83 L1023.5,82.625 L1024.0156,82 L1024.5156,82 L1023,80.2969 L1021.4844,82 L1021.9844,82 L1022.5,82.625 L1022.5,83 L1022.5,83.375 L1021.9844,84 L1021.5469,84 L1019.5,84 L1019.0156,84 L1018.5,83.375 L1018.5,83 L1018.5,82.625 L1019.0156,82 L1019.5,82 L1021.9844,79 L1019.5,76 L1019.0156,76 L1018.5,75.375 L1018.5,75 L1018.5,74.625 L1019.0156,74 L1019.5,74 L1021.5469,74 L1021.9844,74 L1022.5,74.625 L1022.5,75 L1022.5,75.375 L1021.9844,76 L1021.9844,76 L1021.4844,76 L1023,77.5781 L1024.6406,76 L1024.0156,76 L1024.0156,76 L1023.5,75.375 L1023.5,75 L1023.5,74.625 L1024.0156,74 L1024.4531,74 L1026.5,74 L1026.9844,74 L1027.5,74.625 L1027.5,75 L1027.5,75.375 L1026.9844,76 L1026.5,76 L1024.0313,79 Z " fill="#000000"/><text fill="#000000" font-family="sans-serif" font-size="12" lengthAdjust="spacing" textLength="168" x="1037" y="83.9102">InvalidCmdArgumentException</text><line style="stroke:#A80036;stroke-width:1.5;" x1="1009" x2="1207" y1="95" y2="95"/><line style="stroke:#A80036;stroke-width:1.5;" x1="1009" x2="1207" y1="103" y2="103"/><!--MD5=[941b691a7cd82a4f4ac0d30c1c6547f9]
class NonexistentCommandException--><rect codeLine="35" fill="#FFCC99" filter="url(#f1f0azh44o4w0m)" height="48" id="NonexistentCommandException" style="stroke:#A80036;stroke-width:1.5;" width="209" x="606.5" y="213"/><ellipse cx="621.5" cy="229" fill="#FF9999" rx="11" ry="11" style="stroke:#A80036;stroke-width:1.0;"/><path d="M622.5313,229 L625,232 L625.4844,232 L626,232.625 L626,233 L626,233.375 L625.4844,234 L625,234 L622.9531,234 L622.5156,234 L622,233.375 L622,233 L622,232.625 L622.5156,232 L623.0156,232 L621.5,230.2969 L619.9844,232 L620.4844,232 L621,232.625 L621,233 L621,233.375 L620.4844,234 L620.0469,234 L618,234 L617.5156,234 L617,233.375 L617,233 L617,232.625 L617.5156,232 L618,232 L620.4844,229 L618,226 L617.5156,226 L617,225.375 L617,225 L617,224.625 L617.5156,224 L618,224 L620.0469,224 L620.4844,224 L621,224.625 L621,225 L621,225.375 L620.4844,226 L620.4844,226 L619.9844,226 L621.5,227.5781 L623.1406,226 L622.5156,226 L622.5156,226 L622,225.375 L622,225 L622,224.625 L622.5156,224 L622.9531,224 L625,224 L625.4844,224 L626,224.625 L626,225 L626,225.375 L625.4844,226 L625,226 L622.5313,229 Z " fill="#000000"/><text fill="#000000" font-family="sans-serif" font-size="12" lengthAdjust="spacing" textLength="177" x="635.5" y="233.9102">NonexistentCommandException</text><line style="stroke:#A80036;stroke-width:1.5;" x1="607.5" x2="814.5" y1="245" y2="245"/><line style="stroke:#A80036;stroke-width:1.5;" x1="607.5" x2="814.5" y1="253" y2="253"/><!--MD5=[d09396a48992c95716325e25ef3298ae]
class NotRequestableCommandException--><rect codeLine="36" fill="#FFCC99" filter="url(#f1f0azh44o4w0m)" height="48" id="NotRequestableCommandException" style="stroke:#A80036;stroke-width:1.5;" width="234" x="851" y="213"/><ellipse cx="866" cy="229" fill="#FF9999" rx="11" ry="11" style="stroke:#A80036;stroke-width:1.0;"/><path d="M867.0313,229 L869.5,232 L869.9844,232 L870.5,232.625 L870.5,233 L870.5,233.375 L869.9844,234 L869.5,234 L867.4531,234 L867.0156,234 L866.5,233.375 L866.5,233 L866.5,232.625 L867.0156,232 L867.5156,232 L866,230.2969 L864.4844,232 L864.9844,232 L865.5,232.625 L865.5,233 L865.5,233.375 L864.9844,234 L864.5469,234 L862.5,234 L862.0156,234 L861.5,233.375 L861.5,233 L861.5,232.625 L862.0156,232 L862.5,232 L864.9844,229 L862.5,226 L862.0156,226 L861.5,225.375 L861.5,225 L861.5,224.625 L862.0156,224 L862.5,224 L864.5469,224 L864.9844,224 L865.5,224.625 L865.5,225 L865.5,225.375 L864.9844,226 L864.9844,226 L864.4844,226 L866,227.5781 L867.6406,226 L867.0156,226 L867.0156,226 L866.5,225.375 L866.5,225 L866.5,224.625 L867.0156,224 L867.4531,224 L869.5,224 L869.9844,224 L870.5,224.625 L870.5,225 L870.5,225.375 L869.9844,226 L869.5,226 L867.0313,229 Z " fill="#000000"/><text fill="#000000" font-family="sans-serif" font-size="12" lengthAdjust="spacing" textLength="202" x="880" y="233.9102">NotRequestableCommandException</text><line style="stroke:#A80036;stroke-width:1.5;" x1="852" x2="1084" y1="245" y2="245"/><line style="stroke:#A80036;stroke-width:1.5;" x1="852" x2="1084" y1="253" y2="253"/><!--MD5=[9deaf33ed606dd450f5759f468e4eccb]
class RecursiveScriptException--><rect codeLine="37" fill="#FFCC99" filter="url(#f1f0azh44o4w0m)" height="48" id="RecursiveScriptException" style="stroke:#A80036;stroke-width:1.5;" width="171" x="1120.5" y="213"/><ellipse cx="1135.5" cy="229" fill="#FF9999" rx="11" ry="11" style="stroke:#A80036;stroke-width:1.0;"/><path d="M1136.5313,229 L1139,232 L1139.4844,232 L1140,232.625 L1140,233 L1140,233.375 L1139.4844,234 L1139,234 L1136.9531,234 L1136.5156,234 L1136,233.375 L1136,233 L1136,232.625 L1136.5156,232 L1137.0156,232 L1135.5,230.2969 L1133.9844,232 L1134.4844,232 L1135,232.625 L1135,233 L1135,233.375 L1134.4844,234 L1134.0469,234 L1132,234 L1131.5156,234 L1131,233.375 L1131,233 L1131,232.625 L1131.5156,232 L1132,232 L1134.4844,229 L1132,226 L1131.5156,226 L1131,225.375 L1131,225 L1131,224.625 L1131.5156,224 L1132,224 L1134.0469,224 L1134.4844,224 L1135,224.625 L1135,225 L1135,225.375 L1134.4844,226 L1134.4844,226 L1133.9844,226 L1135.5,227.5781 L1137.1406,226 L1136.5156,226 L1136.5156,226 L1136,225.375 L1136,225 L1136,224.625 L1136.5156,224 L1136.9531,224 L1139,224 L1139.4844,224 L1140,224.625 L1140,225 L1140,225.375 L1139.4844,226 L1139,226 L1136.5313,229 Z " fill="#000000"/><text fill="#000000" font-family="sans-serif" font-size="12" lengthAdjust="spacing" textLength="139" x="1149.5" y="233.9102">RecursiveScriptException</text><line style="stroke:#A80036;stroke-width:1.5;" x1="1121.5" x2="1290.5" y1="245" y2="245"/><line style="stroke:#A80036;stroke-width:1.5;" x1="1121.5" x2="1290.5" y1="253" y2="253"/><!--MD5=[46d26fa8e5785a0a26a4834d411722b5]
reverse link Response to ResponseType--><path codeLine="17" d="M191.23,237 C198.48,237 205.74,237 212.99,237 " fill="none" id="Response-backto-ResponseType" style="stroke:#A80036;stroke-width:1.0;"/><polygon fill="#A80036" points="178.17,237,184.17,241,190.17,237,184.17,233,178.17,237" style="stroke:#A80036;stroke-width:1.0;"/><!--MD5=[57720582f976e6c1130290c0bc25dba0]
reverse link Message to Response--><path codeLine="18" d="M95.83,145.52 C97.65,163.46 99.61,182.77 101.24,198.92 " fill="none" id="Message-backto-Response" style="stroke:#A80036;stroke-width:1.0;"/><polygon fill="none" points="88.84,145.95,93.79,125.35,102.77,144.54,88.84,145.95" style="stroke:#A80036;stroke-width:1.0;"/><!--MD5=[549ac2a2e7e85f65fae11185c25749c3]
reverse link Request to RequestType--><path codeLine="27" d="M422.33,87 C429.7,87 437.07,87 444.44,87 " fill="none" id="Request-backto-RequestType" style="stroke:#A80036;stroke-width:1.0;"/><polygon fill="#A80036" points="409.06,87,415.06,91,421.06,87,415.06,83,409.06,87" style="stroke:#A80036;stroke-width:1.0;"/><!--MD5=[f0e95c5b9100c8ec4dffda556617ffee]
reverse link Message to Request--><path codeLine="28" d="M168.35,87 C173.21,87 178.08,87 182.95,87 " fill="none" id="Message-backto-Request" style="stroke:#A80036;stroke-width:1.0;"/><polygon fill="none" points="168.34,94,148.34,87,168.34,80,168.34,94" style="stroke:#A80036;stroke-width:1.0;"/><!--MD5=[3659f11dcd06a2c082f521a118dbd2fa]
link CallstackOverflowException to ExitScriptException--><!--MD5=[aae2b19a72b958ee196492400e3e1678]
link ExitScriptException to InvalidCmdArgumentException--><!--MD5=[d1229f10387b7bed2e35ec3ee71a4212]
link CallstackOverflowException to NonexistentCommandException--><!--MD5=[6f134e61a12be4b640211ba0111f9d65]
link NonexistentCommandException to NotRequestableCommandException--><!--MD5=[7338d7622070219d887a4471ee3898ca]
link NotRequestableCommandException to RecursiveScriptException--><!--MD5=[e0ddda070231349b554ce10e4ce9792d]
@startuml
'https://plantuml.com/sequence-diagram

package containers{
    abstract class Message{
        + final String sender
        + final String content
    }
    enum ResponseType{
        + NONE
        + TASK_COMPLETED
        + TASK_FAILED
    }
    class Response {
        + final ResponseType type
        + Object arg
    }
    ResponseType -l-* Response
    Response -u-|> Message
    enum RequestType{
        + DO_TASK
    }
    class Request {
        + final RequestType type
        + final StorageManager.TaskType taskType
        + final Object arg
    }
    RequestType -l-* Request
    Request -l-|> Message
}

package exceptions {
    class CallstackOverflowException <<X, #FF9999>> #FFCC99
    class ExitScriptException <<X, #FF9999>> #FFCC99
    class InvalidCmdArgumentException <<X, #FF9999>> #FFCC99
    class NonexistentCommandException <<X, #FF9999>> #FFCC99
    class NotRequestableCommandException <<X, #FF9999>> #FFCC99
    class RecursiveScriptException <<X, #FF9999>> #FFCC99
}


@enduml

@startuml

package containers{
    abstract class Message{
        + final String sender
        + final String content
    }
    enum ResponseType{
        + NONE
        + TASK_COMPLETED
        + TASK_FAILED
    }
    class Response {
        + final ResponseType type
        + Object arg
    }
    ResponseType -l-* Response
    Response -u-|> Message
    enum RequestType{
        + DO_TASK
    }
    class Request {
        + final RequestType type
        + final StorageManager.TaskType taskType
        + final Object arg
    }
    RequestType -l-* Request
    Request -l-|> Message
}

package exceptions {
    class CallstackOverflowException <<X, #FF9999>> #FFCC99
    class ExitScriptException <<X, #FF9999>> #FFCC99
    class InvalidCmdArgumentException <<X, #FF9999>> #FFCC99
    class NonexistentCommandException <<X, #FF9999>> #FFCC99
    class NotRequestableCommandException <<X, #FF9999>> #FFCC99
    class RecursiveScriptException <<X, #FF9999>> #FFCC99
}


@enduml

PlantUML version 1.2022.1(Tue Feb 01 21:19:58 MSK 2022)
(GPL source distribution)
Java Runtime: OpenJDK Runtime Environment
JVM: OpenJDK 64-Bit Server VM
Default Encoding: Cp1251
Language: ru
Country: RU
--></g></svg>